<mxfile host="Electron" agent="Mozilla/5.0 (Windows NT 10.0; Win64; x64) AppleWebKit/537.36 (KHTML, like Gecko) draw.io/24.7.8 Chrome/128.0.6613.36 Electron/32.0.1 Safari/537.36" version="24.7.8">
  <diagram name="Page-1" id="pCsZuaA5z1JTF7aSOXdf">
    <mxGraphModel dx="3560" dy="1840" grid="1" gridSize="10" guides="1" tooltips="1" connect="1" arrows="1" fold="1" page="1" pageScale="1" pageWidth="850" pageHeight="1100" math="0" shadow="0">
      <root>
        <mxCell id="0" />
        <mxCell id="1" parent="0" />
        <mxCell id="Pm5u3H1z8by2jEkY2p9G-5" value="" style="group" parent="1" vertex="1" connectable="0">
          <mxGeometry x="275" width="405" height="1870" as="geometry" />
        </mxCell>
        <mxCell id="Pm5u3H1z8by2jEkY2p9G-2" value="" style="rounded=0;whiteSpace=wrap;html=1;" parent="Pm5u3H1z8by2jEkY2p9G-5" vertex="1">
          <mxGeometry width="405" height="1820" as="geometry" />
        </mxCell>
        <mxCell id="Pm5u3H1z8by2jEkY2p9G-4" value="Ike Hall Information System" style="rounded=0;whiteSpace=wrap;html=1;" parent="Pm5u3H1z8by2jEkY2p9G-5" vertex="1">
          <mxGeometry width="229.5" height="52.42424242424243" as="geometry" />
        </mxCell>
        <mxCell id="2xes0_FK-Emr16ivV42R-17" value="supervise civilians" style="ellipse;whiteSpace=wrap;html=1;" parent="Pm5u3H1z8by2jEkY2p9G-5" vertex="1">
          <mxGeometry x="127.5" y="73.39280589680585" width="150" height="52.42424242424243" as="geometry" />
        </mxCell>
        <mxCell id="2xes0_FK-Emr16ivV42R-36" style="edgeStyle=orthogonalEdgeStyle;rounded=0;orthogonalLoop=1;jettySize=auto;html=1;exitX=0.5;exitY=1;exitDx=0;exitDy=0;" parent="Pm5u3H1z8by2jEkY2p9G-5" edge="1">
          <mxGeometry relative="1" as="geometry">
            <mxPoint x="196.75" y="1515.4336430767296" as="sourcePoint" />
            <mxPoint x="196.75" y="1515.4336430767296" as="targetPoint" />
          </mxGeometry>
        </mxCell>
        <mxCell id="Ku1Tr-HQmiwQ22dRsS6y-5" value="add performances" style="ellipse;whiteSpace=wrap;html=1;" vertex="1" parent="Pm5u3H1z8by2jEkY2p9G-5">
          <mxGeometry x="127.5" y="433.58125" width="150" height="52.42424242424243" as="geometry" />
        </mxCell>
        <mxCell id="Ku1Tr-HQmiwQ22dRsS6y-4" value="add acts" style="ellipse;whiteSpace=wrap;html=1;" vertex="1" parent="Pm5u3H1z8by2jEkY2p9G-5">
          <mxGeometry x="127.5" y="362.21875" width="150" height="52.42424242424243" as="geometry" />
        </mxCell>
        <mxCell id="Ku1Tr-HQmiwQ22dRsS6y-3" value="add seasons" style="ellipse;whiteSpace=wrap;html=1;" vertex="1" parent="Pm5u3H1z8by2jEkY2p9G-5">
          <mxGeometry x="127.5" y="289.77500000000003" width="150" height="52.42424242424243" as="geometry" />
        </mxCell>
        <mxCell id="Ku1Tr-HQmiwQ22dRsS6y-2" value="supervise cadets" style="ellipse;whiteSpace=wrap;html=1;" vertex="1" parent="Pm5u3H1z8by2jEkY2p9G-5">
          <mxGeometry x="127.5" y="145.96875" width="150" height="52.42424242424243" as="geometry" />
        </mxCell>
        <mxCell id="Ku1Tr-HQmiwQ22dRsS6y-11" value="add civilians" style="ellipse;whiteSpace=wrap;html=1;" vertex="1" parent="Pm5u3H1z8by2jEkY2p9G-5">
          <mxGeometry x="127.5" y="506.02500000000003" width="150" height="52.42424242424243" as="geometry" />
        </mxCell>
        <mxCell id="Ku1Tr-HQmiwQ22dRsS6y-12" value="delete civilians" style="ellipse;whiteSpace=wrap;html=1;" vertex="1" parent="Pm5u3H1z8by2jEkY2p9G-5">
          <mxGeometry x="127.5" y="794.71875" width="150" height="52.42424242424243" as="geometry" />
        </mxCell>
        <mxCell id="Ku1Tr-HQmiwQ22dRsS6y-13" value="assign supervisor to civilian" style="ellipse;whiteSpace=wrap;html=1;" vertex="1" parent="Pm5u3H1z8by2jEkY2p9G-5">
          <mxGeometry x="127.5" y="722.275" width="150" height="52.42424242424243" as="geometry" />
        </mxCell>
        <mxCell id="Ku1Tr-HQmiwQ22dRsS6y-14" value="assign supervisor to cadets" style="ellipse;whiteSpace=wrap;html=1;" vertex="1" parent="Pm5u3H1z8by2jEkY2p9G-5">
          <mxGeometry x="127.5" y="649.8312500000001" width="150" height="52.42424242424243" as="geometry" />
        </mxCell>
        <mxCell id="Ku1Tr-HQmiwQ22dRsS6y-15" value="add cadets" style="ellipse;whiteSpace=wrap;html=1;" vertex="1" parent="Pm5u3H1z8by2jEkY2p9G-5">
          <mxGeometry x="127.5" y="578.46875" width="150" height="52.42424242424243" as="geometry" />
        </mxCell>
        <mxCell id="Ku1Tr-HQmiwQ22dRsS6y-16" value="assign cadets to teams" style="ellipse;whiteSpace=wrap;html=1;" vertex="1" parent="Pm5u3H1z8by2jEkY2p9G-5">
          <mxGeometry x="127.5" y="1083.4125000000001" width="150" height="52.42424242424243" as="geometry" />
        </mxCell>
        <mxCell id="Ku1Tr-HQmiwQ22dRsS6y-17" value="assign cadets to backstage" style="ellipse;whiteSpace=wrap;html=1;" vertex="1" parent="Pm5u3H1z8by2jEkY2p9G-5">
          <mxGeometry x="127.5" y="1010.96875" width="150" height="52.42424242424243" as="geometry" />
        </mxCell>
        <mxCell id="Ku1Tr-HQmiwQ22dRsS6y-18" value="assign civilians to backstage" style="ellipse;whiteSpace=wrap;html=1;" vertex="1" parent="Pm5u3H1z8by2jEkY2p9G-5">
          <mxGeometry x="127.5" y="938.5250000000001" width="150" height="52.42424242424243" as="geometry" />
        </mxCell>
        <mxCell id="Ku1Tr-HQmiwQ22dRsS6y-19" value="delete cadets" style="ellipse;whiteSpace=wrap;html=1;" vertex="1" parent="Pm5u3H1z8by2jEkY2p9G-5">
          <mxGeometry x="127.5" y="867.1625" width="150" height="52.42424242424243" as="geometry" />
        </mxCell>
        <mxCell id="Ku1Tr-HQmiwQ22dRsS6y-33" value="view list of all cadets" style="ellipse;whiteSpace=wrap;html=1;" vertex="1" parent="Pm5u3H1z8by2jEkY2p9G-5">
          <mxGeometry x="127.5" y="1299.6625000000001" width="150" height="52.42424242424243" as="geometry" />
        </mxCell>
        <mxCell id="Ku1Tr-HQmiwQ22dRsS6y-34" value="view list of all civilians" style="ellipse;whiteSpace=wrap;html=1;" vertex="1" parent="Pm5u3H1z8by2jEkY2p9G-5">
          <mxGeometry x="127.5" y="1227.21875" width="150" height="52.42424242424243" as="geometry" />
        </mxCell>
        <mxCell id="Ku1Tr-HQmiwQ22dRsS6y-35" value="assign cadets to roles for&lt;div&gt;cadet performances&lt;/div&gt;" style="ellipse;whiteSpace=wrap;html=1;" vertex="1" parent="Pm5u3H1z8by2jEkY2p9G-5">
          <mxGeometry x="127.5" y="1154.775" width="150" height="52.42424242424243" as="geometry" />
        </mxCell>
        <mxCell id="Ku1Tr-HQmiwQ22dRsS6y-39" value="view list of cadets by team" style="ellipse;whiteSpace=wrap;html=1;" vertex="1" parent="Pm5u3H1z8by2jEkY2p9G-5">
          <mxGeometry x="127.5" y="1371.025" width="150" height="52.42424242424243" as="geometry" />
        </mxCell>
        <mxCell id="Ku1Tr-HQmiwQ22dRsS6y-40" value="list of cadets and their role for cadet performance&amp;nbsp;" style="ellipse;whiteSpace=wrap;html=1;" vertex="1" parent="Pm5u3H1z8by2jEkY2p9G-5">
          <mxGeometry x="127.5" y="1659.71875" width="150" height="52.42424242424243" as="geometry" />
        </mxCell>
        <mxCell id="Ku1Tr-HQmiwQ22dRsS6y-41" value="View list of all performances by season" style="ellipse;whiteSpace=wrap;html=1;" vertex="1" parent="Pm5u3H1z8by2jEkY2p9G-5">
          <mxGeometry x="127.5" y="1588.35625" width="150" height="52.42424242424243" as="geometry" />
        </mxCell>
        <mxCell id="Ku1Tr-HQmiwQ22dRsS6y-42" value="view list of performances assigned to work" style="ellipse;whiteSpace=wrap;html=1;" vertex="1" parent="Pm5u3H1z8by2jEkY2p9G-5">
          <mxGeometry x="127.5" y="1515.9125000000001" width="150" height="52.42424242424243" as="geometry" />
        </mxCell>
        <mxCell id="Ku1Tr-HQmiwQ22dRsS6y-43" value="view list of who is working backstage by performance" style="ellipse;whiteSpace=wrap;html=1;" vertex="1" parent="Pm5u3H1z8by2jEkY2p9G-5">
          <mxGeometry x="127.5" y="1443.46875" width="150" height="52.42424242424243" as="geometry" />
        </mxCell>
        <mxCell id="Ku1Tr-HQmiwQ22dRsS6y-51" value="list of roles by cadet performance for a specific cadet" style="ellipse;whiteSpace=wrap;html=1;" vertex="1" parent="Pm5u3H1z8by2jEkY2p9G-5">
          <mxGeometry x="127.5" y="1732.0886429232191" width="150" height="52.42424242424243" as="geometry" />
        </mxCell>
        <mxCell id="Ku1Tr-HQmiwQ22dRsS6y-53" style="edgeStyle=orthogonalEdgeStyle;rounded=0;orthogonalLoop=1;jettySize=auto;html=1;exitX=0.5;exitY=1;exitDx=0;exitDy=0;" edge="1" parent="Pm5u3H1z8by2jEkY2p9G-5">
          <mxGeometry relative="1" as="geometry">
            <mxPoint x="202.5" y="1891.3112173913044" as="sourcePoint" />
            <mxPoint x="202.5" y="1891.3112173913044" as="targetPoint" />
          </mxGeometry>
        </mxCell>
        <mxCell id="Ku1Tr-HQmiwQ22dRsS6y-54" style="edgeStyle=orthogonalEdgeStyle;rounded=0;orthogonalLoop=1;jettySize=auto;html=1;exitX=0.5;exitY=1;exitDx=0;exitDy=0;" edge="1" parent="Pm5u3H1z8by2jEkY2p9G-5">
          <mxGeometry relative="1" as="geometry">
            <mxPoint x="202.5" y="1891.3112173913044" as="sourcePoint" />
            <mxPoint x="202.5" y="1891.3112173913044" as="targetPoint" />
          </mxGeometry>
        </mxCell>
        <mxCell id="Ku1Tr-HQmiwQ22dRsS6y-56" style="edgeStyle=orthogonalEdgeStyle;rounded=0;orthogonalLoop=1;jettySize=auto;html=1;exitX=0.5;exitY=1;exitDx=0;exitDy=0;" edge="1" parent="Pm5u3H1z8by2jEkY2p9G-5">
          <mxGeometry relative="1" as="geometry">
            <mxPoint x="202.5" y="1891.3112173913044" as="sourcePoint" />
            <mxPoint x="202.5" y="1891.3112173913044" as="targetPoint" />
          </mxGeometry>
        </mxCell>
        <mxCell id="Ku1Tr-HQmiwQ22dRsS6y-57" style="edgeStyle=orthogonalEdgeStyle;rounded=0;orthogonalLoop=1;jettySize=auto;html=1;exitX=0.5;exitY=1;exitDx=0;exitDy=0;" edge="1" parent="Pm5u3H1z8by2jEkY2p9G-5">
          <mxGeometry relative="1" as="geometry">
            <mxPoint x="202.5" y="1891.3112173913044" as="sourcePoint" />
            <mxPoint x="202.5" y="1891.3112173913044" as="targetPoint" />
          </mxGeometry>
        </mxCell>
        <mxCell id="Ku1Tr-HQmiwQ22dRsS6y-58" style="edgeStyle=orthogonalEdgeStyle;rounded=0;orthogonalLoop=1;jettySize=auto;html=1;exitX=0.5;exitY=1;exitDx=0;exitDy=0;" edge="1" parent="Pm5u3H1z8by2jEkY2p9G-5">
          <mxGeometry relative="1" as="geometry">
            <mxPoint x="202.5" y="1891.3112173913044" as="sourcePoint" />
            <mxPoint x="202.5" y="1891.3112173913044" as="targetPoint" />
          </mxGeometry>
        </mxCell>
        <mxCell id="Ku1Tr-HQmiwQ22dRsS6y-61" value="supervise CIC" style="ellipse;whiteSpace=wrap;html=1;" vertex="1" parent="Pm5u3H1z8by2jEkY2p9G-5">
          <mxGeometry x="127.5" y="217.33125" width="150" height="52.42424242424243" as="geometry" />
        </mxCell>
        <mxCell id="Ku1Tr-HQmiwQ22dRsS6y-1" value="CIC" style="shape=umlActor;verticalLabelPosition=bottom;verticalAlign=top;html=1;outlineConnect=0;" vertex="1" parent="1">
          <mxGeometry x="60" y="1315" width="30" height="60" as="geometry" />
        </mxCell>
        <mxCell id="Ku1Tr-HQmiwQ22dRsS6y-20" value="Civilians" style="shape=umlActor;verticalLabelPosition=bottom;verticalAlign=top;html=1;outlineConnect=0;" vertex="1" parent="1">
          <mxGeometry x="60" y="85" width="30" height="60" as="geometry" />
        </mxCell>
        <mxCell id="Ku1Tr-HQmiwQ22dRsS6y-21" value="Director of&amp;nbsp;&lt;div&gt;Personel&lt;/div&gt;" style="shape=umlActor;verticalLabelPosition=bottom;verticalAlign=top;html=1;outlineConnect=0;" vertex="1" parent="1">
          <mxGeometry x="60" y="905" width="30" height="60" as="geometry" />
        </mxCell>
        <mxCell id="Ku1Tr-HQmiwQ22dRsS6y-22" value="Director of&amp;nbsp;&lt;div&gt;Theatre Operations&lt;div&gt;&lt;br&gt;&lt;/div&gt;&lt;/div&gt;" style="shape=umlActor;verticalLabelPosition=bottom;verticalAlign=top;html=1;outlineConnect=0;" vertex="1" parent="1">
          <mxGeometry x="60" y="495" width="30" height="60" as="geometry" />
        </mxCell>
        <mxCell id="Ku1Tr-HQmiwQ22dRsS6y-23" value="Cadet" style="shape=umlActor;verticalLabelPosition=bottom;verticalAlign=top;html=1;outlineConnect=0;" vertex="1" parent="1">
          <mxGeometry x="60" y="1725" width="30" height="60" as="geometry" />
        </mxCell>
        <mxCell id="Ku1Tr-HQmiwQ22dRsS6y-62" value="" style="endArrow=none;html=1;rounded=0;entryX=0;entryY=0.5;entryDx=0;entryDy=0;exitX=1;exitY=0.3333333333333333;exitDx=0;exitDy=0;exitPerimeter=0;" edge="1" parent="1" source="Ku1Tr-HQmiwQ22dRsS6y-20" target="2xes0_FK-Emr16ivV42R-17">
          <mxGeometry width="50" height="50" relative="1" as="geometry">
            <mxPoint x="130" y="290" as="sourcePoint" />
            <mxPoint x="180" y="240" as="targetPoint" />
          </mxGeometry>
        </mxCell>
        <mxCell id="Ku1Tr-HQmiwQ22dRsS6y-63" value="" style="endArrow=none;html=1;rounded=0;entryX=0;entryY=0.5;entryDx=0;entryDy=0;exitX=1;exitY=0.3333333333333333;exitDx=0;exitDy=0;exitPerimeter=0;" edge="1" parent="1" source="Ku1Tr-HQmiwQ22dRsS6y-22" target="Ku1Tr-HQmiwQ22dRsS6y-61">
          <mxGeometry width="50" height="50" relative="1" as="geometry">
            <mxPoint x="190" y="1410" as="sourcePoint" />
            <mxPoint x="413" y="110" as="targetPoint" />
          </mxGeometry>
        </mxCell>
        <mxCell id="Ku1Tr-HQmiwQ22dRsS6y-64" value="" style="endArrow=none;html=1;rounded=0;entryX=0;entryY=0.5;entryDx=0;entryDy=0;exitX=1;exitY=0.3333333333333333;exitDx=0;exitDy=0;exitPerimeter=0;" edge="1" parent="1" source="Ku1Tr-HQmiwQ22dRsS6y-22" target="Ku1Tr-HQmiwQ22dRsS6y-3">
          <mxGeometry width="50" height="50" relative="1" as="geometry">
            <mxPoint x="170" y="790" as="sourcePoint" />
            <mxPoint x="413" y="254" as="targetPoint" />
          </mxGeometry>
        </mxCell>
        <mxCell id="Ku1Tr-HQmiwQ22dRsS6y-65" value="" style="endArrow=none;html=1;rounded=0;entryX=0;entryY=0.5;entryDx=0;entryDy=0;exitX=1;exitY=0.3333333333333333;exitDx=0;exitDy=0;exitPerimeter=0;" edge="1" parent="1" source="Ku1Tr-HQmiwQ22dRsS6y-22" target="Ku1Tr-HQmiwQ22dRsS6y-4">
          <mxGeometry width="50" height="50" relative="1" as="geometry">
            <mxPoint x="170" y="790" as="sourcePoint" />
            <mxPoint x="413" y="326" as="targetPoint" />
          </mxGeometry>
        </mxCell>
        <mxCell id="Ku1Tr-HQmiwQ22dRsS6y-66" value="" style="endArrow=none;html=1;rounded=0;exitX=1;exitY=0.3333333333333333;exitDx=0;exitDy=0;exitPerimeter=0;" edge="1" parent="1" source="Ku1Tr-HQmiwQ22dRsS6y-22">
          <mxGeometry width="50" height="50" relative="1" as="geometry">
            <mxPoint x="170" y="790" as="sourcePoint" />
            <mxPoint x="403" y="460" as="targetPoint" />
          </mxGeometry>
        </mxCell>
        <mxCell id="Ku1Tr-HQmiwQ22dRsS6y-69" value="" style="endArrow=none;html=1;rounded=0;exitX=1;exitY=0.3333333333333333;exitDx=0;exitDy=0;exitPerimeter=0;entryX=0;entryY=0.5;entryDx=0;entryDy=0;" edge="1" parent="1" source="Ku1Tr-HQmiwQ22dRsS6y-22" target="Ku1Tr-HQmiwQ22dRsS6y-11">
          <mxGeometry width="50" height="50" relative="1" as="geometry">
            <mxPoint x="180" y="310" as="sourcePoint" />
            <mxPoint x="413" y="470" as="targetPoint" />
          </mxGeometry>
        </mxCell>
        <mxCell id="Ku1Tr-HQmiwQ22dRsS6y-70" value="" style="endArrow=none;html=1;rounded=0;exitX=1;exitY=0.3333333333333333;exitDx=0;exitDy=0;exitPerimeter=0;entryX=0;entryY=0.5;entryDx=0;entryDy=0;" edge="1" parent="1" source="Ku1Tr-HQmiwQ22dRsS6y-22" target="Ku1Tr-HQmiwQ22dRsS6y-15">
          <mxGeometry width="50" height="50" relative="1" as="geometry">
            <mxPoint x="180" y="310" as="sourcePoint" />
            <mxPoint x="413" y="542" as="targetPoint" />
          </mxGeometry>
        </mxCell>
        <mxCell id="Ku1Tr-HQmiwQ22dRsS6y-71" value="" style="endArrow=none;html=1;rounded=0;exitX=1;exitY=0.3333333333333333;exitDx=0;exitDy=0;exitPerimeter=0;entryX=0;entryY=0.5;entryDx=0;entryDy=0;" edge="1" parent="1" source="Ku1Tr-HQmiwQ22dRsS6y-21" target="Ku1Tr-HQmiwQ22dRsS6y-11">
          <mxGeometry width="50" height="50" relative="1" as="geometry">
            <mxPoint x="180" y="310" as="sourcePoint" />
            <mxPoint x="413" y="615" as="targetPoint" />
          </mxGeometry>
        </mxCell>
        <mxCell id="Ku1Tr-HQmiwQ22dRsS6y-72" value="" style="endArrow=none;html=1;rounded=0;exitX=1;exitY=0.3333333333333333;exitDx=0;exitDy=0;exitPerimeter=0;entryX=0;entryY=0.5;entryDx=0;entryDy=0;" edge="1" parent="1" source="Ku1Tr-HQmiwQ22dRsS6y-21" target="Ku1Tr-HQmiwQ22dRsS6y-15">
          <mxGeometry width="50" height="50" relative="1" as="geometry">
            <mxPoint x="180" y="1023" as="sourcePoint" />
            <mxPoint x="413" y="542" as="targetPoint" />
          </mxGeometry>
        </mxCell>
        <mxCell id="Ku1Tr-HQmiwQ22dRsS6y-73" value="" style="endArrow=none;html=1;rounded=0;exitX=1;exitY=0.3333333333333333;exitDx=0;exitDy=0;exitPerimeter=0;entryX=0;entryY=0.5;entryDx=0;entryDy=0;" edge="1" parent="1" source="Ku1Tr-HQmiwQ22dRsS6y-22" target="Ku1Tr-HQmiwQ22dRsS6y-14">
          <mxGeometry width="50" height="50" relative="1" as="geometry">
            <mxPoint x="180" y="710" as="sourcePoint" />
            <mxPoint x="413" y="615" as="targetPoint" />
          </mxGeometry>
        </mxCell>
        <mxCell id="Ku1Tr-HQmiwQ22dRsS6y-74" value="" style="endArrow=none;html=1;rounded=0;exitX=1;exitY=0.3333333333333333;exitDx=0;exitDy=0;exitPerimeter=0;entryX=0;entryY=0.5;entryDx=0;entryDy=0;" edge="1" parent="1" source="Ku1Tr-HQmiwQ22dRsS6y-22" target="Ku1Tr-HQmiwQ22dRsS6y-13">
          <mxGeometry width="50" height="50" relative="1" as="geometry">
            <mxPoint x="190" y="720" as="sourcePoint" />
            <mxPoint x="413" y="686" as="targetPoint" />
          </mxGeometry>
        </mxCell>
        <mxCell id="Ku1Tr-HQmiwQ22dRsS6y-76" value="" style="endArrow=none;html=1;rounded=0;exitX=0;exitY=0.5;exitDx=0;exitDy=0;entryX=1;entryY=0.3333333333333333;entryDx=0;entryDy=0;entryPerimeter=0;" edge="1" parent="1" source="Ku1Tr-HQmiwQ22dRsS6y-14" target="Ku1Tr-HQmiwQ22dRsS6y-21">
          <mxGeometry width="50" height="50" relative="1" as="geometry">
            <mxPoint x="412" y="758" as="sourcePoint" />
            <mxPoint x="180" y="710" as="targetPoint" />
          </mxGeometry>
        </mxCell>
        <mxCell id="Ku1Tr-HQmiwQ22dRsS6y-77" value="" style="endArrow=none;html=1;rounded=0;exitX=0;exitY=0.5;exitDx=0;exitDy=0;entryX=1;entryY=0.3333333333333333;entryDx=0;entryDy=0;entryPerimeter=0;" edge="1" parent="1" source="Ku1Tr-HQmiwQ22dRsS6y-12" target="Ku1Tr-HQmiwQ22dRsS6y-22">
          <mxGeometry width="50" height="50" relative="1" as="geometry">
            <mxPoint x="422" y="768" as="sourcePoint" />
            <mxPoint x="190" y="720" as="targetPoint" />
          </mxGeometry>
        </mxCell>
        <mxCell id="Ku1Tr-HQmiwQ22dRsS6y-78" value="" style="endArrow=none;html=1;rounded=0;exitX=0;exitY=0.5;exitDx=0;exitDy=0;entryX=1;entryY=0.3333333333333333;entryDx=0;entryDy=0;entryPerimeter=0;" edge="1" parent="1" source="Ku1Tr-HQmiwQ22dRsS6y-12" target="Ku1Tr-HQmiwQ22dRsS6y-21">
          <mxGeometry width="50" height="50" relative="1" as="geometry">
            <mxPoint x="432" y="778" as="sourcePoint" />
            <mxPoint x="200" y="730" as="targetPoint" />
          </mxGeometry>
        </mxCell>
        <mxCell id="Ku1Tr-HQmiwQ22dRsS6y-79" value="" style="endArrow=none;html=1;rounded=0;exitX=0;exitY=0.5;exitDx=0;exitDy=0;entryX=1;entryY=0.3333333333333333;entryDx=0;entryDy=0;entryPerimeter=0;" edge="1" parent="1" source="Ku1Tr-HQmiwQ22dRsS6y-19" target="Ku1Tr-HQmiwQ22dRsS6y-22">
          <mxGeometry width="50" height="50" relative="1" as="geometry">
            <mxPoint x="412" y="831" as="sourcePoint" />
            <mxPoint x="180" y="310" as="targetPoint" />
          </mxGeometry>
        </mxCell>
        <mxCell id="Ku1Tr-HQmiwQ22dRsS6y-80" value="" style="endArrow=none;html=1;rounded=0;exitX=0;exitY=0.5;exitDx=0;exitDy=0;entryX=1;entryY=0.3333333333333333;entryDx=0;entryDy=0;entryPerimeter=0;" edge="1" parent="1" source="Ku1Tr-HQmiwQ22dRsS6y-19" target="Ku1Tr-HQmiwQ22dRsS6y-21">
          <mxGeometry width="50" height="50" relative="1" as="geometry">
            <mxPoint x="412" y="831" as="sourcePoint" />
            <mxPoint x="180" y="710" as="targetPoint" />
          </mxGeometry>
        </mxCell>
        <mxCell id="Ku1Tr-HQmiwQ22dRsS6y-75" value="" style="endArrow=none;html=1;rounded=0;exitX=0;exitY=0.5;exitDx=0;exitDy=0;entryX=1;entryY=0.3333333333333333;entryDx=0;entryDy=0;entryPerimeter=0;" edge="1" parent="1" source="Ku1Tr-HQmiwQ22dRsS6y-13" target="Ku1Tr-HQmiwQ22dRsS6y-21">
          <mxGeometry width="50" height="50" relative="1" as="geometry">
            <mxPoint x="169.5" y="380" as="sourcePoint" />
            <mxPoint x="170" y="700" as="targetPoint" />
          </mxGeometry>
        </mxCell>
        <mxCell id="Ku1Tr-HQmiwQ22dRsS6y-81" value="" style="endArrow=none;html=1;rounded=0;exitX=1;exitY=0.3333333333333333;exitDx=0;exitDy=0;exitPerimeter=0;entryX=0;entryY=0.5;entryDx=0;entryDy=0;" edge="1" parent="1" source="Ku1Tr-HQmiwQ22dRsS6y-1" target="Ku1Tr-HQmiwQ22dRsS6y-15">
          <mxGeometry width="50" height="50" relative="1" as="geometry">
            <mxPoint x="180" y="800" as="sourcePoint" />
            <mxPoint x="412" y="542" as="targetPoint" />
          </mxGeometry>
        </mxCell>
        <mxCell id="Ku1Tr-HQmiwQ22dRsS6y-82" value="" style="endArrow=none;html=1;rounded=0;exitX=1;exitY=0.3333333333333333;exitDx=0;exitDy=0;exitPerimeter=0;entryX=0;entryY=0.5;entryDx=0;entryDy=0;" edge="1" parent="1" source="Ku1Tr-HQmiwQ22dRsS6y-1" target="Ku1Tr-HQmiwQ22dRsS6y-14">
          <mxGeometry width="50" height="50" relative="1" as="geometry">
            <mxPoint x="180" y="567" as="sourcePoint" />
            <mxPoint x="412" y="615" as="targetPoint" />
          </mxGeometry>
        </mxCell>
        <mxCell id="Ku1Tr-HQmiwQ22dRsS6y-83" value="" style="endArrow=none;html=1;rounded=0;exitX=1;exitY=0.3333333333333333;exitDx=0;exitDy=0;exitPerimeter=0;entryX=0;entryY=0.5;entryDx=0;entryDy=0;" edge="1" parent="1" source="Ku1Tr-HQmiwQ22dRsS6y-1" target="Ku1Tr-HQmiwQ22dRsS6y-19">
          <mxGeometry width="50" height="50" relative="1" as="geometry">
            <mxPoint x="180" y="567" as="sourcePoint" />
            <mxPoint x="412" y="686" as="targetPoint" />
          </mxGeometry>
        </mxCell>
        <mxCell id="Ku1Tr-HQmiwQ22dRsS6y-84" value="" style="endArrow=none;html=1;rounded=0;exitX=0;exitY=0.5;exitDx=0;exitDy=0;entryX=1;entryY=0.3333333333333333;entryDx=0;entryDy=0;entryPerimeter=0;" edge="1" parent="1" source="Ku1Tr-HQmiwQ22dRsS6y-18" target="Ku1Tr-HQmiwQ22dRsS6y-22">
          <mxGeometry width="50" height="50" relative="1" as="geometry">
            <mxPoint x="412" y="903" as="sourcePoint" />
            <mxPoint x="180" y="1000" as="targetPoint" />
          </mxGeometry>
        </mxCell>
        <mxCell id="Ku1Tr-HQmiwQ22dRsS6y-85" value="" style="endArrow=none;html=1;rounded=0;exitX=0;exitY=0.5;exitDx=0;exitDy=0;entryX=1;entryY=0.3333333333333333;entryDx=0;entryDy=0;entryPerimeter=0;" edge="1" parent="1" source="Ku1Tr-HQmiwQ22dRsS6y-17" target="Ku1Tr-HQmiwQ22dRsS6y-22">
          <mxGeometry width="50" height="50" relative="1" as="geometry">
            <mxPoint x="412" y="975" as="sourcePoint" />
            <mxPoint x="180" y="1000" as="targetPoint" />
          </mxGeometry>
        </mxCell>
        <mxCell id="Ku1Tr-HQmiwQ22dRsS6y-86" value="" style="endArrow=none;html=1;rounded=0;exitX=1;exitY=0.3333333333333333;exitDx=0;exitDy=0;exitPerimeter=0;entryX=0;entryY=0.5;entryDx=0;entryDy=0;" edge="1" parent="1" source="Ku1Tr-HQmiwQ22dRsS6y-1" target="Ku1Tr-HQmiwQ22dRsS6y-17">
          <mxGeometry width="50" height="50" relative="1" as="geometry">
            <mxPoint x="170" y="1200" as="sourcePoint" />
            <mxPoint x="412" y="903" as="targetPoint" />
          </mxGeometry>
        </mxCell>
        <mxCell id="Ku1Tr-HQmiwQ22dRsS6y-87" value="" style="endArrow=none;html=1;rounded=0;exitX=1;exitY=0.3333333333333333;exitDx=0;exitDy=0;exitPerimeter=0;entryX=0;entryY=0.5;entryDx=0;entryDy=0;" edge="1" parent="1" source="Ku1Tr-HQmiwQ22dRsS6y-1" target="Ku1Tr-HQmiwQ22dRsS6y-16">
          <mxGeometry width="50" height="50" relative="1" as="geometry">
            <mxPoint x="170" y="1200" as="sourcePoint" />
            <mxPoint x="412" y="1047" as="targetPoint" />
          </mxGeometry>
        </mxCell>
        <mxCell id="Ku1Tr-HQmiwQ22dRsS6y-88" value="" style="endArrow=none;html=1;rounded=0;exitX=1;exitY=0.3333333333333333;exitDx=0;exitDy=0;exitPerimeter=0;entryX=0;entryY=0.5;entryDx=0;entryDy=0;" edge="1" parent="1" source="Ku1Tr-HQmiwQ22dRsS6y-22" target="Ku1Tr-HQmiwQ22dRsS6y-16">
          <mxGeometry width="50" height="50" relative="1" as="geometry">
            <mxPoint x="170" y="1200" as="sourcePoint" />
            <mxPoint x="412" y="1120" as="targetPoint" />
          </mxGeometry>
        </mxCell>
        <mxCell id="Ku1Tr-HQmiwQ22dRsS6y-89" value="" style="endArrow=none;html=1;rounded=0;exitX=1;exitY=0.3333333333333333;exitDx=0;exitDy=0;exitPerimeter=0;entryX=0;entryY=0.5;entryDx=0;entryDy=0;" edge="1" parent="1" source="Ku1Tr-HQmiwQ22dRsS6y-22" target="Ku1Tr-HQmiwQ22dRsS6y-35">
          <mxGeometry width="50" height="50" relative="1" as="geometry">
            <mxPoint x="170" y="1200" as="sourcePoint" />
            <mxPoint x="412" y="1120" as="targetPoint" />
          </mxGeometry>
        </mxCell>
        <mxCell id="Ku1Tr-HQmiwQ22dRsS6y-90" value="" style="endArrow=none;html=1;rounded=0;exitX=0;exitY=0.5;exitDx=0;exitDy=0;entryX=1;entryY=0.3333333333333333;entryDx=0;entryDy=0;entryPerimeter=0;" edge="1" parent="1" source="Ku1Tr-HQmiwQ22dRsS6y-35" target="Ku1Tr-HQmiwQ22dRsS6y-1">
          <mxGeometry width="50" height="50" relative="1" as="geometry">
            <mxPoint x="180" y="1000" as="sourcePoint" />
            <mxPoint x="220" y="1380" as="targetPoint" />
          </mxGeometry>
        </mxCell>
        <mxCell id="Ku1Tr-HQmiwQ22dRsS6y-91" value="" style="endArrow=none;html=1;rounded=0;entryX=0;entryY=0.5;entryDx=0;entryDy=0;exitX=1;exitY=0.3333333333333333;exitDx=0;exitDy=0;exitPerimeter=0;" edge="1" parent="1" source="Ku1Tr-HQmiwQ22dRsS6y-21" target="Ku1Tr-HQmiwQ22dRsS6y-34">
          <mxGeometry width="50" height="50" relative="1" as="geometry">
            <mxPoint x="200" y="1320" as="sourcePoint" />
            <mxPoint x="170" y="1200" as="targetPoint" />
          </mxGeometry>
        </mxCell>
        <mxCell id="Ku1Tr-HQmiwQ22dRsS6y-92" value="" style="endArrow=none;html=1;rounded=0;entryX=1;entryY=0.3333333333333333;entryDx=0;entryDy=0;exitX=0;exitY=0.5;exitDx=0;exitDy=0;entryPerimeter=0;" edge="1" parent="1" source="Ku1Tr-HQmiwQ22dRsS6y-34" target="Ku1Tr-HQmiwQ22dRsS6y-22">
          <mxGeometry width="50" height="50" relative="1" as="geometry">
            <mxPoint x="180" y="800" as="sourcePoint" />
            <mxPoint x="412" y="1263" as="targetPoint" />
          </mxGeometry>
        </mxCell>
        <mxCell id="Ku1Tr-HQmiwQ22dRsS6y-93" value="" style="endArrow=none;html=1;rounded=0;exitX=0;exitY=0.5;exitDx=0;exitDy=0;entryX=1;entryY=0.3333333333333333;entryDx=0;entryDy=0;entryPerimeter=0;" edge="1" parent="1" source="Ku1Tr-HQmiwQ22dRsS6y-33" target="Ku1Tr-HQmiwQ22dRsS6y-1">
          <mxGeometry width="50" height="50" relative="1" as="geometry">
            <mxPoint x="412" y="1191" as="sourcePoint" />
            <mxPoint x="170" y="1200" as="targetPoint" />
          </mxGeometry>
        </mxCell>
        <mxCell id="Ku1Tr-HQmiwQ22dRsS6y-95" value="" style="endArrow=none;html=1;rounded=0;exitX=1;exitY=0.3333333333333333;exitDx=0;exitDy=0;exitPerimeter=0;entryX=0;entryY=0.5;entryDx=0;entryDy=0;" edge="1" parent="1" source="Ku1Tr-HQmiwQ22dRsS6y-21" target="Ku1Tr-HQmiwQ22dRsS6y-33">
          <mxGeometry width="50" height="50" relative="1" as="geometry">
            <mxPoint x="170" y="752" as="sourcePoint" />
            <mxPoint x="140" y="1450" as="targetPoint" />
          </mxGeometry>
        </mxCell>
        <mxCell id="Ku1Tr-HQmiwQ22dRsS6y-96" value="" style="endArrow=none;html=1;rounded=0;exitX=0;exitY=0.5;exitDx=0;exitDy=0;entryX=1;entryY=0.3333333333333333;entryDx=0;entryDy=0;entryPerimeter=0;" edge="1" parent="1" source="Ku1Tr-HQmiwQ22dRsS6y-33" target="Ku1Tr-HQmiwQ22dRsS6y-22">
          <mxGeometry width="50" height="50" relative="1" as="geometry">
            <mxPoint x="170" y="752" as="sourcePoint" />
            <mxPoint x="130" y="600" as="targetPoint" />
          </mxGeometry>
        </mxCell>
        <mxCell id="Ku1Tr-HQmiwQ22dRsS6y-97" value="" style="endArrow=none;html=1;rounded=0;exitX=0;exitY=0.5;exitDx=0;exitDy=0;entryX=1;entryY=0.3333333333333333;entryDx=0;entryDy=0;entryPerimeter=0;" edge="1" parent="1" source="Ku1Tr-HQmiwQ22dRsS6y-39" target="Ku1Tr-HQmiwQ22dRsS6y-21">
          <mxGeometry width="50" height="50" relative="1" as="geometry">
            <mxPoint x="232" y="1406" as="sourcePoint" />
            <mxPoint x="-10" y="1270" as="targetPoint" />
          </mxGeometry>
        </mxCell>
        <mxCell id="Ku1Tr-HQmiwQ22dRsS6y-98" value="" style="endArrow=none;html=1;rounded=0;entryX=0;entryY=0.5;entryDx=0;entryDy=0;exitX=1;exitY=0.3333333333333333;exitDx=0;exitDy=0;exitPerimeter=0;" edge="1" parent="1" source="Ku1Tr-HQmiwQ22dRsS6y-22" target="Ku1Tr-HQmiwQ22dRsS6y-39">
          <mxGeometry width="50" height="50" relative="1" as="geometry">
            <mxPoint x="220" y="1460" as="sourcePoint" />
            <mxPoint y="1280" as="targetPoint" />
          </mxGeometry>
        </mxCell>
        <mxCell id="Ku1Tr-HQmiwQ22dRsS6y-99" value="" style="endArrow=none;html=1;rounded=0;entryX=0;entryY=0.5;entryDx=0;entryDy=0;exitX=1;exitY=0.3333333333333333;exitDx=0;exitDy=0;exitPerimeter=0;" edge="1" parent="1" source="Ku1Tr-HQmiwQ22dRsS6y-1" target="Ku1Tr-HQmiwQ22dRsS6y-39">
          <mxGeometry width="50" height="50" relative="1" as="geometry">
            <mxPoint x="-70" y="1573" as="sourcePoint" />
            <mxPoint x="113" y="1510" as="targetPoint" />
          </mxGeometry>
        </mxCell>
        <mxCell id="Ku1Tr-HQmiwQ22dRsS6y-100" value="" style="endArrow=none;html=1;rounded=0;exitX=1;exitY=0.3333333333333333;exitDx=0;exitDy=0;exitPerimeter=0;entryX=0;entryY=0.5;entryDx=0;entryDy=0;" edge="1" parent="1" source="Ku1Tr-HQmiwQ22dRsS6y-1" target="Ku1Tr-HQmiwQ22dRsS6y-43">
          <mxGeometry width="50" height="50" relative="1" as="geometry">
            <mxPoint x="-10" y="1320" as="sourcePoint" />
            <mxPoint x="150" y="1460" as="targetPoint" />
          </mxGeometry>
        </mxCell>
        <mxCell id="Ku1Tr-HQmiwQ22dRsS6y-101" value="" style="endArrow=none;html=1;rounded=0;exitX=1;exitY=0.3333333333333333;exitDx=0;exitDy=0;exitPerimeter=0;entryX=0;entryY=0.5;entryDx=0;entryDy=0;" edge="1" parent="1" source="Ku1Tr-HQmiwQ22dRsS6y-21" target="Ku1Tr-HQmiwQ22dRsS6y-43">
          <mxGeometry width="50" height="50" relative="1" as="geometry">
            <mxPoint y="1330" as="sourcePoint" />
            <mxPoint x="160" y="1470" as="targetPoint" />
          </mxGeometry>
        </mxCell>
        <mxCell id="Ku1Tr-HQmiwQ22dRsS6y-102" value="" style="endArrow=none;html=1;rounded=0;exitX=1;exitY=0.3333333333333333;exitDx=0;exitDy=0;exitPerimeter=0;entryX=0;entryY=0.5;entryDx=0;entryDy=0;" edge="1" parent="1" source="Ku1Tr-HQmiwQ22dRsS6y-22" target="Ku1Tr-HQmiwQ22dRsS6y-43">
          <mxGeometry width="50" height="50" relative="1" as="geometry">
            <mxPoint x="10" y="1340" as="sourcePoint" />
            <mxPoint x="170" y="1480" as="targetPoint" />
          </mxGeometry>
        </mxCell>
        <mxCell id="Ku1Tr-HQmiwQ22dRsS6y-103" value="" style="endArrow=none;html=1;rounded=0;exitX=1;exitY=0.3333333333333333;exitDx=0;exitDy=0;exitPerimeter=0;entryX=0;entryY=0.5;entryDx=0;entryDy=0;" edge="1" parent="1" source="Ku1Tr-HQmiwQ22dRsS6y-20" target="Ku1Tr-HQmiwQ22dRsS6y-42">
          <mxGeometry width="50" height="50" relative="1" as="geometry">
            <mxPoint x="-340" y="1360" as="sourcePoint" />
            <mxPoint x="-97" y="1640" as="targetPoint" />
          </mxGeometry>
        </mxCell>
        <mxCell id="Ku1Tr-HQmiwQ22dRsS6y-104" value="" style="endArrow=none;html=1;rounded=0;exitX=1;exitY=0.3333333333333333;exitDx=0;exitDy=0;exitPerimeter=0;entryX=0;entryY=0.5;entryDx=0;entryDy=0;" edge="1" parent="1" source="Ku1Tr-HQmiwQ22dRsS6y-23" target="Ku1Tr-HQmiwQ22dRsS6y-42">
          <mxGeometry width="50" height="50" relative="1" as="geometry">
            <mxPoint x="-330" y="1370" as="sourcePoint" />
            <mxPoint x="10" y="1700" as="targetPoint" />
          </mxGeometry>
        </mxCell>
        <mxCell id="Ku1Tr-HQmiwQ22dRsS6y-105" value="Anyone" style="shape=umlActor;verticalLabelPosition=bottom;verticalAlign=top;html=1;outlineConnect=0;" vertex="1" parent="1">
          <mxGeometry x="770" y="1670" width="30" height="60" as="geometry" />
        </mxCell>
        <mxCell id="Ku1Tr-HQmiwQ22dRsS6y-106" value="" style="endArrow=none;html=1;rounded=0;exitX=1;exitY=0.5;exitDx=0;exitDy=0;entryX=0;entryY=0.3333333333333333;entryDx=0;entryDy=0;entryPerimeter=0;" edge="1" parent="1" source="Ku1Tr-HQmiwQ22dRsS6y-41" target="Ku1Tr-HQmiwQ22dRsS6y-105">
          <mxGeometry width="50" height="50" relative="1" as="geometry">
            <mxPoint x="530" y="1763" as="sourcePoint" />
            <mxPoint x="843" y="1560" as="targetPoint" />
          </mxGeometry>
        </mxCell>
        <mxCell id="Ku1Tr-HQmiwQ22dRsS6y-107" value="" style="endArrow=none;html=1;rounded=0;exitX=1;exitY=0.5;exitDx=0;exitDy=0;entryX=0;entryY=0.3333333333333333;entryDx=0;entryDy=0;entryPerimeter=0;" edge="1" parent="1" source="Ku1Tr-HQmiwQ22dRsS6y-40" target="Ku1Tr-HQmiwQ22dRsS6y-105">
          <mxGeometry width="50" height="50" relative="1" as="geometry">
            <mxPoint x="530" y="1690" as="sourcePoint" />
            <mxPoint x="738" y="1759.9551569506725" as="targetPoint" />
          </mxGeometry>
        </mxCell>
        <mxCell id="Ku1Tr-HQmiwQ22dRsS6y-108" value="" style="endArrow=none;html=1;rounded=0;exitX=1;exitY=0.5;exitDx=0;exitDy=0;entryX=0;entryY=0.3333333333333333;entryDx=0;entryDy=0;entryPerimeter=0;" edge="1" parent="1" source="Ku1Tr-HQmiwQ22dRsS6y-51" target="Ku1Tr-HQmiwQ22dRsS6y-105">
          <mxGeometry width="50" height="50" relative="1" as="geometry">
            <mxPoint x="562" y="1696" as="sourcePoint" />
            <mxPoint x="780" y="1700" as="targetPoint" />
          </mxGeometry>
        </mxCell>
        <mxCell id="Ku1Tr-HQmiwQ22dRsS6y-109" value="" style="endArrow=none;html=1;rounded=0;exitX=1;exitY=0.3333333333333333;exitDx=0;exitDy=0;exitPerimeter=0;entryX=0;entryY=0.5;entryDx=0;entryDy=0;" edge="1" parent="1" source="Ku1Tr-HQmiwQ22dRsS6y-1" target="Ku1Tr-HQmiwQ22dRsS6y-2">
          <mxGeometry width="50" height="50" relative="1" as="geometry">
            <mxPoint x="100" y="1345" as="sourcePoint" />
            <mxPoint x="412" y="686" as="targetPoint" />
          </mxGeometry>
        </mxCell>
      </root>
    </mxGraphModel>
  </diagram>
</mxfile>
